HIERARCHY
ROOT Hips
{
  OFFSET 373.837 88.1643 177.628
  CHANNELS 6 Xposition Yposition Zposition Zrotation Xrotation Yrotation
  JOINT RightUpLeg
  {
    OFFSET -9.27602 -1.55371 -0.0617006
    CHANNELS 3 Zrotation Xrotation Yrotation
    JOINT RightLeg
    {
      OFFSET 0.0569767 -41.8713 0.0644562
      CHANNELS 3 Zrotation Xrotation Yrotation
      JOINT RightFoot
      {
        OFFSET -0.463049 -43.0064 -0.0336586
        CHANNELS 3 Zrotation Xrotation Yrotation
        End Site
        {
          OFFSET 0 -7.69 17.5
        }
      }
    }
  }
  JOINT LeftUpLeg
  {
    OFFSET 9.29312 -1.63815 0.0236341
    CHANNELS 3 Zrotation Xrotation Yrotation
    JOINT LeftLeg
    {
      OFFSET 0.0670365 -41.8776 -0.0578197
      CHANNELS 3 Zrotation Xrotation Yrotation
      JOINT LeftFoot
      {
        OFFSET 0.591956 -40.8352 0.210268
        CHANNELS 3 Zrotation Xrotation Yrotation
        End Site
        {
          OFFSET 0 -7.69 17.5
        }
      }
    }
  }
  JOINT Spine
  {
    OFFSET 0.0229142 14.2949 0.0394214
    CHANNELS 3 Zrotation Xrotation Yrotation
    JOINT Spine1
    {
      OFFSET 0.0328969 9.71943 0.0194292
      CHANNELS 3 Zrotation Xrotation Yrotation
      JOINT Spine2
      {
        OFFSET 0.0292955 10.1244 -0.00440821
        CHANNELS 3 Zrotation Xrotation Yrotation
        JOINT Spine3
        {
          OFFSET 0.024556 9.71184 0.0101567
          CHANNELS 3 Zrotation Xrotation Yrotation
          JOINT Neck
          {
            OFFSET 0.152325 10.3757 0.0664015
            CHANNELS 3 Zrotation Xrotation Yrotation
            JOINT Head
            {
              OFFSET 0.134553 9.4858 0.0499874
              CHANNELS 3 Zrotation Xrotation Yrotation
              End Site
              {
                OFFSET 0 15.95 0
              }
            }
          }
          JOINT RightShoulder
          {
            OFFSET -3.19519 6.89024 -0.0330231
            CHANNELS 3 Zrotation Xrotation Yrotation
            JOINT RightArm
            {
              OFFSET -12.6524 0.0927817 0.0603028
              CHANNELS 3 Zrotation Xrotation Yrotation
              JOINT RightForeArm
              {
                OFFSET -26.4983 -0.141459 0.202928
                CHANNELS 3 Zrotation Xrotation Yrotation
                JOINT RightHand
                {
                  OFFSET -25.9883 -0.0240172 0.0141731
                  CHANNELS 3 Zrotation Xrotation Yrotation
                  JOINT RightHandThumb1
                  {
                    OFFSET -2.48905 0.190105 3.12053
                    CHANNELS 3 Zrotation Xrotation Yrotation
                    JOINT RightHandThumb2
                    {
                      OFFSET -3.68274 0 0
                      CHANNELS 3 Zrotation Xrotation Yrotation
                      JOINT RightHandThumb3
                      {
                        OFFSET -2.55832 0 0
                        CHANNELS 3 Zrotation Xrotation Yrotation
                        End Site
                        {
                          OFFSET -2.194 0 0
                        }
                      }
                    }
                  }
                  JOINT RightInHandIndex
                  {
                    OFFSET -3.22368 0.508421 1.97842
                    CHANNELS 3 Zrotation Xrotation Yrotation
                    JOINT RightHandIndex1
                    {
                      OFFSET -5.21684 -0.091368 0.999158
                      CHANNELS 3 Zrotation Xrotation Yrotation
                      JOINT RightHandIndex2
                      {
                        OFFSET -3.61937 0 0
                        CHANNELS 3 Zrotation Xrotation Yrotation
                        JOINT RightHandIndex3
                        {
                          OFFSET -2.0521 0 0
                          CHANNELS 3 Zrotation Xrotation Yrotation
                          End Site
                          {
                            OFFSET -1.805 0 0
                          }
                        }
                      }
                    }
                  }
                  JOINT RightInHandMiddle
                  {
                    OFFSET -3.38211 0.517263 0.756737
                    CHANNELS 3 Zrotation Xrotation Yrotation
                    JOINT RightHandMiddle1
                    {
                      OFFSET -5.17411 -0.084 0.313895
                      CHANNELS 3 Zrotation Xrotation Yrotation
                      JOINT RightHandMiddle2
                      {
                        OFFSET -3.94947 0 0
                        CHANNELS 3 Zrotation Xrotation Yrotation
                        JOINT RightHandMiddle3
                        {
                          OFFSET -2.47579 0 0
                          CHANNELS 3 Zrotation Xrotation Yrotation
                          End Site
                          {
                            OFFSET -1.975 0 0
                          }
                        }
                      }
                    }
                  }
                  JOINT RightInHandRing
                  {
                    OFFSET -3.36516 0.537895 -0.128947
                    CHANNELS 3 Zrotation Xrotation Yrotation
                    JOINT RightHandRing1
                    {
                      OFFSET -4.63474 -0.022105 -0.478947
                      CHANNELS 3 Zrotation Xrotation Yrotation
                      JOINT RightHandRing2
                      {
                        OFFSET -3.44238 0 0
                        CHANNELS 3 Zrotation Xrotation Yrotation
                        JOINT RightHandRing3
                        {
                          OFFSET -2.3881 0 0
                          CHANNELS 3 Zrotation Xrotation Yrotation
                          End Site
                          {
                            OFFSET -1.857 0 0
                          }
                        }
                      }
                    }
                  }
                  JOINT RightInHandPinky
                  {
                    OFFSET -3.16105 0.469368 -1.20179
                    CHANNELS 3 Zrotation Xrotation Yrotation
                    JOINT RightHandPinky1
                    {
                      OFFSET -4.14105 -0.022105 -1.09053
                      CHANNELS 3 Zrotation Xrotation Yrotation
                      JOINT RightHandPinky2
                      {
                        OFFSET -2.75653 0 0
                        CHANNELS 3 Zrotation Xrotation Yrotation
                        JOINT RightHandPinky3
                        {
                          OFFSET -1.74189 0 0
                          CHANNELS 3 Zrotation Xrotation Yrotation
                          End Site
                          {
                            OFFSET -1.645 0 0
                          }
                        }
                      }
                    }
                  }
                }
              }
            }
          }
          JOINT LeftShoulder
          {
            OFFSET 3.28609 6.87948 -0.0751467
            CHANNELS 3 Zrotation Xrotation Yrotation
            JOINT LeftArm
            {
              OFFSET 12.831 -0.0663252 -0.1321
              CHANNELS 3 Zrotation Xrotation Yrotation
              JOINT LeftForeArm
              {
                OFFSET 26.5106 -0.082189 -0.0903645
                CHANNELS 3 Zrotation Xrotation Yrotation
                JOINT LeftHand
                {
                  OFFSET 25.9965 -0.0307163 -0.0535747
                  CHANNELS 3 Zrotation Xrotation Yrotation
                  JOINT LeftHandThumb1
                  {
                    OFFSET 2.48905 0.190105 3.12053
                    CHANNELS 3 Zrotation Xrotation Yrotation
                    JOINT LeftHandThumb2
                    {
                      OFFSET 3.68274 0 0
                      CHANNELS 3 Zrotation Xrotation Yrotation
                      JOINT LeftHandThumb3
                      {
                        OFFSET 2.55832 0 0
                        CHANNELS 3 Zrotation Xrotation Yrotation
                        End Site
                        {
                          OFFSET 2.194 0 0
                        }
                      }
                    }
                  }
                  JOINT LeftInHandIndex
                  {
                    OFFSET 3.22368 0.508421 1.97842
                    CHANNELS 3 Zrotation Xrotation Yrotation
                    JOINT LeftHandIndex1
                    {
                      OFFSET 5.21684 -0.091368 0.999158
                      CHANNELS 3 Zrotation Xrotation Yrotation
                      JOINT LeftHandIndex2
                      {
                        OFFSET 3.61937 0 0
                        CHANNELS 3 Zrotation Xrotation Yrotation
                        JOINT LeftHandIndex3
                        {
                          OFFSET 2.0521 0 0
                          CHANNELS 3 Zrotation Xrotation Yrotation
                          End Site
                          {
                            OFFSET 1.805 0 0
                          }
                        }
                      }
                    }
                  }
                  JOINT LeftInHandMiddle
                  {
                    OFFSET 3.38211 0.517263 0.756737
                    CHANNELS 3 Zrotation Xrotation Yrotation
                    JOINT LeftHandMiddle1
                    {
                      OFFSET 5.17411 -0.084 0.313895
                      CHANNELS 3 Zrotation Xrotation Yrotation
                      JOINT LeftHandMiddle2
                      {
                        OFFSET 3.94947 0 0
                        CHANNELS 3 Zrotation Xrotation Yrotation
                        JOINT LeftHandMiddle3
                        {
                          OFFSET 2.47579 0 0
                          CHANNELS 3 Zrotation Xrotation Yrotation
                          End Site
                          {
                            OFFSET 1.975 0 0
                          }
                        }
                      }
                    }
                  }
                  JOINT LeftInHandRing
                  {
                    OFFSET 3.36516 0.537895 -0.128947
                    CHANNELS 3 Zrotation Xrotation Yrotation
                    JOINT LeftHandRing1
                    {
                      OFFSET 4.63474 -0.022105 -0.478947
                      CHANNELS 3 Zrotation Xrotation Yrotation
                      JOINT LeftHandRing2
                      {
                        OFFSET 3.44238 0 0
                        CHANNELS 3 Zrotation Xrotation Yrotation
                        JOINT LeftHandRing3
                        {
                          OFFSET 2.3881 0 0
                          CHANNELS 3 Zrotation Xrotation Yrotation
                          End Site
                          {
                            OFFSET 1.857 0 0
                          }
                        }
                      }
                    }
                  }
                  JOINT LeftInHandPinky
                  {
                    OFFSET 3.16105 0.469368 -1.20179
                    CHANNELS 3 Zrotation Xrotation Yrotation
                    JOINT LeftHandPinky1
                    {
                      OFFSET 4.14105 -0.022105 -1.09053
                      CHANNELS 3 Zrotation Xrotation Yrotation
                      JOINT LeftHandPinky2
                      {
                        OFFSET 2.75653 0 0
                        CHANNELS 3 Zrotation Xrotation Yrotation
                        JOINT LeftHandPinky3
                        {
                          OFFSET 1.74189 0 0
                          CHANNELS 3 Zrotation Xrotation Yrotation
                          End Site
                          {
                            OFFSET 1.645 0 0
                          }
                        }
                      }
                    }
                  }
                }
              }
            }
          }
        }
      }
    }
  }
}
MOTION
Frames: 3
Frame Time: 0.00833333
1.499992851984135882e+02 -1.428734555058754085e-05 -1.159375764815711880e-03 -4.083303228912713370e-03 4.401723590859107915e-03 -3.903842721001583339e-03 1.932968057378764469e-03 1.001433668652381911e-02 -7.254638176519993820e-03 -8.813534215444979170e-03 -4.017217920637634714e-03 1.112292276128876677e-02 8.462015225241212649e-03 6.015885316501904008e-03 -5.310089611193098344e-03 3.053987904913354080e-03 9.442589598244292143e-03 1.414314237143133321e-03 -5.956499349305931917e-03 -3.523118593299304213e-03 1.962520755891328586e-02 -1.827792172978891586e-02 9.523740779553344776e-03 -1.238338793082556510e-02 4.339965349665449688e-03 8.003740957564590410e-04 5.726334945150314375e-03 1.010064889524938054e-03 4.384843927558555602e-04 1.341915707015472808e-03 1.657150446241116354e-03 7.860711113835031722e-04 2.153777793787509630e-03 1.028198788382061942e-04 1.741125498234860972e-03 5.306472516014032080e-04 -6.908893497188986314e-03 1.729776623182296622e-02 -2.211281595119228560e-02 -1.940753720398218649e-03 2.236968254818548843e-02 -2.418575475662186787e-03 -2.311982082652152670e-03 -1.089896717337198459e-03 -9.807340509559183371e-04 5.468977929155566589e-03 8.791357791998230531e-03 8.682802714718936693e-03 -3.575429712020595455e-03 -2.012380197963632711e-03 6.649034208901231230e-03 -6.457961325521086038e-02 -1.464942511534454983e-01 -9.825189741004360100e-02 0.000000000000000000e+00 0.000000000000000000e+00 0.000000000000000000e+00 3.526283729296978501e-15 -4.143436880701844720e-15 0.000000000000000000e+00 -9.062741556994073855e-15 1.721317119616827242e-15 0.000000000000000000e+00 1.136898893853247887e-15 -1.474309291584423399e-15 8.525251608605652597e-16 0.000000000000000000e+00 0.000000000000000000e+00 0.000000000000000000e+00 0.000000000000000000e+00 -1.175177845425784016e-16 -4.894934009928531088e-16 0.000000000000000000e+00 -2.937695412526076613e-15 -2.222220400556798907e-15 1.136898893853247887e-15 -1.474309291584423399e-15 8.525251608605652597e-16 0.000000000000000000e+00 4.423416704526525293e-16 2.172702696964572238e-16 0.000000000000000000e+00 2.217668007472691574e-15 1.628088911117644911e-15 0.000000000000000000e+00 -4.634853009722979086e-15 9.162345761207968750e-16 1.136898893853247887e-15 -1.474309291584423399e-15 8.525251608605652597e-16 0.000000000000000000e+00 0.000000000000000000e+00 0.000000000000000000e+00 0.000000000000000000e+00 2.151069854336865963e-16 1.030973681207003723e-15 0.000000000000000000e+00 5.078436537437240371e-16 -6.434170288234832347e-16 1.136898893853247887e-15 -1.474309291584423399e-15 8.525251608605652597e-16 0.000000000000000000e+00 0.000000000000000000e+00 0.000000000000000000e+00 0.000000000000000000e+00 1.404686984485228919e-15 -2.607822287907704047e-15 0.000000000000000000e+00 3.882300321008960924e-15 -1.891881290436845238e-16 -9.093867494791194050e-02 3.322592864219805174e-03 -6.507558847517277978e-02 1.981361283809070228e-02 3.477398351724785702e-02 5.968942938582547098e-02 -1.225627154692338766e-02 1.036224105459991086e-03 2.583054789493023640e-02 -9.740194742263032918e-03 9.212808428264978450e-03 -2.231644158040466119e-02 0.000000000000000000e+00 0.000000000000000000e+00 0.000000000000000000e+00 1.941593312170771520e-15 -5.042655684861822896e-15 0.000000000000000000e+00 7.821755395177743928e-16 -3.985060319462348748e-15 0.000000000000000000e+00 3.920393051945218217e-15 -3.947347994352199458e-16 -1.206440184468797340e-15 0.000000000000000000e+00 0.000000000000000000e+00 0.000000000000000000e+00 0.000000000000000000e+00 2.879029078847816221e-16 1.747343698056129223e-15 0.000000000000000000e+00 -2.562091283399962351e-16 2.059766085211242263e-16 3.920393051945218217e-15 -3.947347994352199458e-16 -1.206440184468797340e-15 0.000000000000000000e+00 5.234192146415723472e-16 3.215852512089706664e-15 0.000000000000000000e+00 -5.939364517482876307e-16 1.697419911863741570e-15 0.000000000000000000e+00 6.801293046157405249e-16 2.037007352890198238e-15 3.920393051945218217e-15 -3.947347994352199458e-16 -1.206440184468797340e-15 0.000000000000000000e+00 0.000000000000000000e+00 0.000000000000000000e+00 0.000000000000000000e+00 -2.063830607010220364e-16 -1.466928209342342226e-16 0.000000000000000000e+00 1.150598667266771603e-17 8.874348058956701361e-16 3.920393051945218217e-15 -3.947347994352199458e-16 -1.206440184468797340e-15 0.000000000000000000e+00 0.000000000000000000e+00 0.000000000000000000e+00 0.000000000000000000e+00 1.028093383613548648e-15 2.463378654354207156e-16 0.000000000000000000e+00 -9.490957259428141717e-16 1.221314997980893510e-16
1.499987826772877213e+02 5.111886047414528631e-06 -1.166866918840806736e-03 6.702451113294130049e-04 8.733429509412431527e-03 1.405041182211538321e-02 -5.119310949738655955e-03 -1.199327710785094009e-03 -2.598359742949062426e-02 -5.751784390041705768e-03 -6.175455215094722249e-03 7.301543911178207287e-03 -3.535325360259037632e-03 7.280931206663118077e-03 6.528057492610200331e-03 -1.810470789348492954e-02 -1.344495433627043712e-02 -6.352111112071355363e-03 3.618588665292095385e-02 1.248956488310523378e-03 -1.517937303010340362e-02 1.661377867361437874e-02 2.065320964496905262e-02 8.854192209065085001e-03 -1.815242319417765052e-02 -5.295822113248378066e-03 -2.418074513655941310e-02 -4.386644808668403381e-03 -2.197274327431770861e-03 -5.769763247254721707e-03 -7.338890981480083661e-03 -3.885416722316104542e-03 -9.122437106850645253e-03 3.925302896600882710e-04 1.112424705210423139e-03 -2.300125080042636884e-04 -6.077673752700353668e-04 2.070186065259187191e-02 3.452200827489043319e-03 2.547614718796563371e-02 -1.931984759578783337e-02 5.970089856170239344e-03 3.413220557890038476e-02 2.150789258970078194e-02 2.141704446134664805e-02 -3.344184546268078040e-02 5.383817561799720403e-05 -2.639208319192357793e-02 2.047551125243386727e-02 -5.630182342883814292e-03 -7.157751072981711343e-03 1.593158348612916941e-01 3.410779149447406566e-01 2.049102554780970198e-01 0.000000000000000000e+00 0.000000000000000000e+00 0.000000000000000000e+00 1.377743556101262377e-15 -2.927996539401231283e-16 0.000000000000000000e+00 -1.067894714916952691e-15 -4.930025791833062607e-16 0.000000000000000000e+00 -7.557244998552308694e-16 1.656543394891521147e-16 2.757920480271585845e-16 0.000000000000000000e+00 0.000000000000000000e+00 0.000000000000000000e+00 0.000000000000000000e+00 -3.481309466834364946e-16 -7.395509698752643077e-16 0.000000000000000000e+00 -2.780315084527490542e-16 -5.685928563878604090e-17 -7.557244998552308694e-16 1.656543394891521147e-16 2.757920480271585845e-16 0.000000000000000000e+00 5.202544076635225021e-16 4.605268655324232120e-16 0.000000000000000000e+00 6.015348457377639684e-16 -8.471344530029144157e-16 0.000000000000000000e+00 1.626868606110364521e-15 -2.124627484745971043e-15 -7.557244998552308694e-16 1.656543394891521147e-16 2.757920480271585845e-16 0.000000000000000000e+00 0.000000000000000000e+00 0.000000000000000000e+00 0.000000000000000000e+00 1.244238632364694902e-15 6.560942745326702919e-17 0.000000000000000000e+00 6.806191801134310526e-17 -2.709494622032568982e-16 -7.557244998552308694e-16 1.656543394891521147e-16 2.757920480271585845e-16 0.000000000000000000e+00 0.000000000000000000e+00 0.000000000000000000e+00 0.000000000000000000e+00 -2.192502813384334291e-15 -3.738951743788176948e-16 0.000000000000000000e+00 3.208473739448196103e-15 4.332397305103698966e-16 4.406377463900595925e-02 3.465702543086411624e-02 3.263470840447670052e-02 8.584263122058993084e-03 -2.616115484041271928e-03 -1.420459757323051103e-02 1.273907368440425555e-02 2.848063222168550207e-02 2.585067923896672282e-02 -1.554554819992671859e-02 -2.626165793816435945e-02 -4.471298586624487120e-02 0.000000000000000000e+00 0.000000000000000000e+00 0.000000000000000000e+00 -1.191233621565282629e-15 -1.006190011171274526e-16 0.000000000000000000e+00 -1.242769955741766388e-15 -4.469516328593223924e-16 0.000000000000000000e+00 7.463267493408884062e-16 5.171270290215818969e-17 2.909249831806376124e-16 0.000000000000000000e+00 0.000000000000000000e+00 0.000000000000000000e+00 0.000000000000000000e+00 -3.926857709502444909e-16 3.180646329375121577e-16 0.000000000000000000e+00 -1.483701587346909255e-16 -5.615836808380062240e-16 7.463267493408884062e-16 5.171270290215818969e-17 2.909249831806376124e-16 0.000000000000000000e+00 3.081113775891817013e-17 6.463594147788375422e-16 0.000000000000000000e+00 -1.801385208008820111e-16 2.597242251580799714e-16 0.000000000000000000e+00 -1.437509503133833963e-16 -5.638342479482562640e-16 7.463267493408884062e-16 5.171270290215818969e-17 2.909249831806376124e-16 0.000000000000000000e+00 0.000000000000000000e+00 0.000000000000000000e+00 0.000000000000000000e+00 1.366788317049385716e-16 -7.695287186002916901e-17 0.000000000000000000e+00 -1.963272443521445355e-16 -3.262062074356147723e-16 7.463267493408884062e-16 5.171270290215818969e-17 2.909249831806376124e-16 0.000000000000000000e+00 0.000000000000000000e+00 0.000000000000000000e+00 0.000000000000000000e+00 3.494538295433983241e-16 1.903687925851755509e-17 0.000000000000000000e+00 3.658079092649611182e-17 3.166095722195724806e-16
1.500003501331367772e+02 -9.570124634758938719e-04 3.211847015826305857e-03 -6.677454469718917610e-04 4.832598223291430933e-03 -3.338555004153067208e-04 -2.019462413497577729e-04 4.297296229681473421e-03 3.809159557018193401e-04 2.300929354697552748e-03 5.597614472182891850e-04 -7.542223640029442448e-03 -1.276523145779473976e-02 6.746180635010213741e-04 8.598942972891383818e-03 -1.779540271179292504e-02 -1.484221074533394365e-02 8.173030489906826443e-03 3.591345321475664099e-02 1.593980695843857237e-02 -3.681620037059003814e-02 2.184945010442990859e-02 -4.326466313102846767e-03 1.846471922089244072e-02 -1.594662627608588873e-02 -6.289890608976208674e-04 -1.314508127114159125e-02 -3.937143382277771657e-03 -9.427172647507687598e-04 -3.065365236063977844e-03 -6.544865071949320171e-03 -1.808526971124385738e-03 -4.776932569485703613e-03 -1.565466291517432539e-03 -2.023697365208932243e-04 -1.610108466030760600e-04 3.719580331970826804e-03 5.005421722305761559e-03 1.615589866873024319e-02 1.970285476016754578e-02 -2.719522756612882328e-02 6.030998142325547269e-03 2.431196649882995386e-02 1.991086814909083860e-02 6.316422992790133445e-03 -1.933194751634573216e-02 -1.698799738947250407e-02 -1.144149022836296777e-02 2.031734621548077560e-02 7.854082349167556057e-03 -1.234396211503032380e-02 1.402323510149447276e-02 1.550626901965998158e-02 2.778322078865737635e-02 0.000000000000000000e+00 0.000000000000000000e+00 0.000000000000000000e+00 -9.130024543916194228e-15 3.288213515552395114e-15 0.000000000000000000e+00 -8.939948893550562603e-15 -1.252274854393290477e-15 0.000000000000000000e+00 -1.887209841665820694e-16 6.896611097978977272e-16 1.428417680059238593e-15 0.000000000000000000e+00 0.000000000000000000e+00 0.000000000000000000e+00 0.000000000000000000e+00 1.419597696860699878e-15 -9.934726569812814194e-16 0.000000000000000000e+00 7.490722828030757696e-16 -2.014470935285214241e-15 -1.887209841665820694e-16 6.896611097978977272e-16 1.428417680059238593e-15 0.000000000000000000e+00 -2.225322633239233624e-15 1.244769665986694176e-15 0.000000000000000000e+00 -4.350244404728456187e-15 2.980920162958169921e-15 0.000000000000000000e+00 4.214272418617233430e-15 1.005122938449834496e-16 -1.887209841665820694e-16 6.896611097978977272e-16 1.428417680059238593e-15 0.000000000000000000e+00 0.000000000000000000e+00 0.000000000000000000e+00 0.000000000000000000e+00 -9.489854231173304969e-16 -3.024424501179081133e-15 0.000000000000000000e+00 4.546129867669266674e-15 -1.125945506833297267e-15 -1.887209841665820694e-16 6.896611097978977272e-16 1.428417680059238593e-15 0.000000000000000000e+00 0.000000000000000000e+00 0.000000000000000000e+00 0.000000000000000000e+00 -7.852231750542142959e-15 -2.657790082713948276e-15 0.000000000000000000e+00 5.602333267384788704e-16 1.779142989371975022e-15 5.382179646622207991e-02 2.104059205599800517e-02 3.857955638983690677e-02 4.425172708743575767e-03 -1.472886309765723475e-02 -8.884433544577192976e-04 -8.532870936500566023e-03 -9.056174572625895480e-02 -1.522177363661190441e-01 -3.061280433481269533e-03 7.154293072566204935e-04 1.292446294017640107e-01 0.000000000000000000e+00 0.000000000000000000e+00 0.000000000000000000e+00 5.290896298138190369e-15 -2.772871720262339754e-15 0.000000000000000000e+00 4.732756517424299576e-15 -4.061184421780860049e-15 0.000000000000000000e+00 5.058542239031580100e-15 -7.401867557059163185e-17 1.486880757563150757e-16 0.000000000000000000e+00 0.000000000000000000e+00 0.000000000000000000e+00 0.000000000000000000e+00 3.410809091537705131e-16 -3.061858560682710483e-15 0.000000000000000000e+00 2.075823910663347575e-15 -6.083851094941915624e-16 5.058542239031580100e-15 -7.401867557059163185e-17 1.486880757563150757e-16 0.000000000000000000e+00 -3.643584125902762146e-16 1.893847956123040303e-15 0.000000000000000000e+00 -9.673514131005071239e-16 1.694108430257033383e-16 0.000000000000000000e+00 7.691419495910491370e-16 1.417797726590206026e-15 5.058542239031580100e-15 -7.401867557059163185e-17 1.486880757563150757e-16 0.000000000000000000e+00 0.000000000000000000e+00 0.000000000000000000e+00 0.000000000000000000e+00 -4.994228627651750290e-17 -7.493758652776076624e-16 0.000000000000000000e+00 -3.101352568494153306e-16 -4.930183626919877127e-16 5.058542239031580100e-15 -7.401867557059163185e-17 1.486880757563150757e-16 0.000000000000000000e+00 0.000000000000000000e+00 0.000000000000000000e+00 0.000000000000000000e+00 8.902392869897412744e-16 5.720129304727771250e-16 0.000000000000000000e+00 -6.435232172112351631e-16 5.166871611312047842e-16
